<svg width="100" height="148" viewBox="0 0 100 148" fill="none" xmlns="http://www.w3.org/2000/svg">
<g clip-path="url(#clip0_1608_2799)">
<path d="M84.5992 97.3942C81.9856 98.7676 79.3684 100.152 76.7548 101.525C75.3554 99.5947 73.1309 96.7437 71.7422 94.8169" stroke="black" stroke-width="2" stroke-miterlimit="10" stroke-linecap="round"/>
<path d="M84.5992 97.3942C81.9856 98.7676 79.3684 100.152 76.7548 101.525C75.3554 99.5947 73.1309 96.7437 71.7422 94.8169" stroke="#00999E" stroke-width="2" stroke-miterlimit="10" stroke-linecap="round"/>
<path d="M76.9567 100.513C83.8378 82.804 79.7697 64.1951 63.4609 51.8354C58.9835 48.4444 50.605 43.7524 44.8827 42.6705C38.7599 41.5201 32.4008 42.784 26.9416 45.1727C21.1495 47.7004 15.992 51.6636 13.6622 56.9439C13.1848 58.0308 12.8288 59.2358 13.2242 60.3705C14.1182 62.9547 18.0453 63.5724 21.0545 63.2264C31.023 62.068 39.6189 55.409 42.068 46.9413C43.5964 41.649 42.6822 35.8307 39.8278 30.8179C37.2232 26.2349 33.0249 22.7763 28.1626 20.7298C23.6508 18.8305 16.2955 16.4977 8.46346 17.1369" stroke="black" stroke-width="2" stroke-miterlimit="10" stroke-linecap="round"/>
<path d="M76.9567 100.513C83.8378 82.804 79.7697 64.1951 63.4609 51.8354C58.9835 48.4444 50.605 43.7524 44.8827 42.6705C38.7599 41.5201 32.4008 42.784 26.9416 45.1727C21.1495 47.7004 15.992 51.6636 13.6622 56.9439C13.1848 58.0308 12.8288 59.2358 13.2242 60.3705C14.1182 62.9547 18.0453 63.5724 21.0545 63.2264C31.023 62.068 39.6189 55.409 42.068 46.9413C43.5964 41.649 42.6822 35.8307 39.8278 30.8179C37.2232 26.2349 33.0249 22.7763 28.1626 20.7298C23.6508 18.8305 16.2955 16.4977 8.46346 17.1369" stroke="#00999E" stroke-width="2" stroke-miterlimit="10" stroke-linecap="round"/>
</g>
<defs>
<clipPath id="clip0_1608_2799">
<rect width="134.51" height="68.86" fill="white" transform="matrix(0.246799 0.969067 0.969067 -0.246799 0 16.9946)"/>
</clipPath>
</defs>
</svg>
